{
  "accessors": [
    {
      "bufferView": 2,
      "componentType": 5126,
      "count": 65533,
      "max": [
        0.10875000059604645,
        0.14249999821186066,
        0.03466000035405159
      ],
      "min": [
        -0.11144000291824341,
        -0.14249999821186066,
        -0.03229999914765358
      ],
      "type": "VEC3"
    },
    {
      "bufferView": 2,
      "byteOffset": 786396,
      "componentType": 5126,
      "count": 65533,
      "max": [
        1,
        1,
        1
      ],
      "min": [
        -1,
        -1,
        -1
      ],
      "type": "VEC3"
    },
    {
      "bufferView": 3,
      "componentType": 5126,
      "count": 65533,
      "max": [
        1,
        1,
        1,
        1
      ],
      "min": [
        -1,
        -1,
        -1,
        -1
      ],
      "type": "VEC4"
    },
    {
      "bufferView": 1,
      "componentType": 5126,
      "count": 65533,
      "max": [
        1,
        0.99893999099731445
      ],
      "min": [
        0,
        0
      ],
      "type": "VEC2"
    },
    {
      "bufferView": 0,
      "componentType": 5125,
      "count": 122928,
      "max": [
        65532
      ],
      "min": [
        0
      ],
      "type": "SCALAR"
    },
    {
      "bufferView": 2,
      "byteOffset": 1572792,
      "componentType": 5126,
      "count": 65533,
      "max": [
        0.10875000059604645,
        0.14248999953269958,
        0.034499999135732651
      ],
      "min": [
        -0.10892999917268753,
        -0.14249999821186066,
        -0.015639999881386757
      ],
      "type": "VEC3"
    },
    {
      "bufferView": 2,
      "byteOffset": 2359188,
      "componentType": 5126,
      "count": 65533,
      "max": [
        0.98079550266265869,
        1,
        0.9807894229888916
      ],
      "min": [
        -0.98079317808151245,
        -1,
        -0.98078745603561401
      ],
      "type": "VEC3"
    },
    {
      "bufferView": 3,
      "byteOffset": 1048528,
      "componentType": 5126,
      "count": 65533,
      "max": [
        0.9807894229888916,
        0.015665115788578987,
        0.98079556226730347,
        1
      ],
      "min": [
        -0.9807894229888916,
        -0.015665033832192421,
        -1,
        1
      ],
      "type": "VEC4"
    },
    {
      "bufferView": 1,
      "byteOffset": 524264,
      "componentType": 5126,
      "count": 65533,
      "max": [
        1,
        1
      ],
      "min": [
        0.00041000000783242285,
        0
      ],
      "type": "VEC2"
    },
    {
      "bufferView": 0,
      "byteOffset": 491712,
      "componentType": 5125,
      "count": 122094,
      "max": [
        65532
      ],
      "min": [
        0
      ],
      "type": "SCALAR"
    },
    {
      "bufferView": 2,
      "byteOffset": 3145584,
      "componentType": 5126,
      "count": 65532,
      "max": [
        0.10875000059604645,
        0.14249999821186066,
        0.034499999135732651
      ],
      "min": [
        -0.11102999746799469,
        -0.14204999804496765,
        -0.017200000584125519
      ],
      "type": "VEC3"
    },
    {
      "bufferView": 2,
      "byteOffset": 3931968,
      "componentType": 5126,
      "count": 65532,
      "max": [
        0.99999940395355225,
        1,
        1
      ],
      "min": [
        -1,
        -1,
        -1
      ],
      "type": "VEC3"
    },
    {
      "bufferView": 3,
      "byteOffset": 2097056,
      "componentType": 5126,
      "count": 65532,
      "max": [
        1,
        0.98079746961593628,
        1,
        1
      ],
      "min": [
        -1,
        -0.98079746961593628,
        -1,
        1
      ],
      "type": "VEC4"
    },
    {
      "bufferView": 1,
      "byteOffset": 1048528,
      "componentType": 5126,
      "count": 65532,
      "max": [
        1,
        1
      ],
      "min": [
        0.00041000000783242285,
        0
      ],
      "type": "VEC2"
    },
    {
      "bufferView": 0,
      "byteOffset": 980088,
      "componentType": 5125,
      "count": 121662,
      "max": [
        65531
      ],
      "min": [
        0
      ],
      "type": "SCALAR"
    },
    {
      "bufferView": 2,
      "byteOffset": 4718352,
      "componentType": 5126,
      "count": 65533,
      "max": [
        0.10779000073671341,
        -0.00047999998787418008,
        0.034499999135732651
      ],
      "min": [
        -0.10787999629974365,
        -0.093469999730587006,
        0.028710000216960907
      ],
      "type": "VEC3"
    },
    {
      "bufferView": 2,
      "byteOffset": 5504748,
      "componentType": 5126,
      "count": 65533,
      "max": [
        0.9807974100112915,
        0.98079133033752441,
        1
      ],
      "min": [
        -0.98079550266265869,
        -0.98079317808151245,
        0
      ],
      "type": "VEC3"
    },
    {
      "bufferView": 3,
      "byteOffset": 3145568,
      "componentType": 5126,
      "count": 65533,
      "max": [
        0.98079317808151245,
        0.98079746961593628,
        0.015705142170190811,
        1
      ],
      "min": [
        -1,
        -0.9807974100112915,
        -0.015726404264569283,
        1
      ],
      "type": "VEC4"
    },
    {
      "bufferView": 1,
      "byteOffset": 1572784,
      "componentType": 5126,
      "count": 65533,
      "max": [
        0.99765002727508545,
        0.99681001901626587
      ],
      "min": [
        0.00041000000783242285,
        0
      ],
      "type": "VEC2"
    },
    {
      "bufferView": 0,
      "byteOffset": 1466736,
      "componentType": 5125,
      "count": 121122,
      "max": [
        65532
      ],
      "min": [
        0
      ],
      "type": "SCALAR"
    },
    {
      "bufferView": 2,
      "byteOffset": 6291144,
      "componentType": 5126,
      "count": 65532,
      "max": [
        0.10875000059604645,
        0.14249999821186066,
        0.034499999135732651
      ],
      "min": [
        -0.10892999917268753,
        -0.14249999821186066,
        -0.03229999914765358
      ],
      "type": "VEC3"
    },
    {
      "bufferView": 2,
      "byteOffset": 7077528,
      "componentType": 5126,
      "count": 65532,
      "max": [
        1,
        1,
        1
      ],
      "min": [
        -1,
        -1,
        -1
      ],
      "type": "VEC3"
    },
    {
      "bufferView": 3,
      "byteOffset": 4194096,
      "componentType": 5126,
      "count": 65532,
      "max": [
        1,
        0.99999916553497314,
        1,
        1
      ],
      "min": [
        -1,
        -0.99999648332595825,
        -1,
        1
      ],
      "type": "VEC4"
    },
    {
      "bufferView": 1,
      "byteOffset": 2097048,
      "componentType": 5126,
      "count": 65532,
      "max": [
        0.99926000833511353,
        0.99794000387191772
      ],
      "min": [
        0,
        0
      ],
      "type": "VEC2"
    },
    {
      "bufferView": 0,
      "byteOffset": 1951224,
      "componentType": 5125,
      "count": 114246,
      "max": [
        65531
      ],
      "min": [
        0
      ],
      "type": "SCALAR"
    },
    {
      "bufferView": 2,
      "byteOffset": 7863912,
      "componentType": 5126,
      "count": 65532,
      "max": [
        -0.1072700023651123,
        -3.9999998989515007e-05,
        0.030629999935626984
      ],
      "min": [
        -0.10892999917268753,
        -0.10715000331401825,
        -0.016060000285506248
      ],
      "type": "VEC3"
    },
    {
      "bufferView": 2,
      "byteOffset": 8650296,
      "componentType": 5126,
      "count": 65532,
      "max": [
        0.018339913338422775,
        0.98080927133560181,
        0.98079133033752441
      ],
      "min": [
        -1,
        -0.98080927133560181,
        -0.9807894229888916
      ],
      "type": "VEC3"
    },
    {
      "bufferView": 3,
      "byteOffset": 5242608,
      "componentType": 5126,
      "count": 65532,
      "max": [
        0.064120501279830933,
        0.98079133033752441,
        0.98080933094024658,
        1
      ],
      "min": [
        -0.064120523631572723,
        -0.9807894229888916,
        -1,
        1
      ],
      "type": "VEC4"
    },
    {
      "bufferView": 1,
      "byteOffset": 2621304,
      "componentType": 5126,
      "count": 65532,
      "max": [
        0.91750997304916382,
        0.92311000823974609
      ],
      "min": [
        0.019640000537037849,
        0.18219000101089478
      ],
      "type": "VEC2"
    },
    {
      "bufferView": 0,
      "byteOffset": 2408208,
      "componentType": 5125,
      "count": 122520,
      "max": [
        65531
      ],
      "min": [
        0
      ],
      "type": "SCALAR"
    },
    {
      "bufferView": 2,
      "byteOffset": 9436680,
      "componentType": 5126,
      "count": 65533,
      "max": [
        0.10665000230073929,
        0.14249999821186066,
        0.03466000035405159
      ],
      "min": [
        -0.11144000291824341,
        -0.14249999821186066,
        -0.016279999166727066
      ],
      "type": "VEC3"
    },
    {
      "bufferView": 2,
      "byteOffset": 10223076,
      "componentType": 5126,
      "count": 65533,
      "max": [
        1,
        1,
        1
      ],
      "min": [
        -1,
        -1,
        -1
      ],
      "type": "VEC3"
    },
    {
      "bufferView": 3,
      "byteOffset": 6291120,
      "componentType": 5126,
      "count": 65533,
      "max": [
        0.70555132627487183,
        0.98079133033752441,
        1,
        1
      ],
      "min": [
        -0.70549279451370239,
        -0.98079133033752441,
        -1,
        1
      ],
      "type": "VEC4"
    },
    {
      "bufferView": 1,
      "byteOffset": 3145560,
      "componentType": 5126,
      "count": 65533,
      "max": [
        0.91873002052307129,
        0.92308998107910156
      ],
      "min": [
        0,
        0
      ],
      "type": "VEC2"
    },
    {
      "bufferView": 0,
      "byteOffset": 2898288,
      "componentType": 5125,
      "count": 116076,
      "max": [
        65532
      ],
      "min": [
        0
      ],
      "type": "SCALAR"
    },
    {
      "bufferView": 2,
      "byteOffset": 11009472,
      "componentType": 5126,
      "count": 7,
      "max": [
        0.10625000298023224,
        -0.027559999376535416,
        -0.0066300001926720142
      ],
      "min": [
        0.094120003283023834,
        -0.036890000104904175,
        -0.0071200001984834671
      ],
      "type": "VEC3"
    },
    {
      "bufferView": 2,
      "byteOffset": 11009556,
      "componentType": 5126,
      "count": 7,
      "max": [
        -0,
        1,
        0
      ],
      "min": [
        -0,
        -1,
        0
      ],
      "type": "VEC3"
    },
    {
      "bufferView": 3,
      "byteOffset": 7339648,
      "componentType": 5126,
      "count": 7,
      "max": [
        0,
        0,
        0,
        1
      ],
      "min": [
        0,
        0,
        0,
        1
      ],
      "type": "VEC4"
    },
    {
      "bufferView": 1,
      "byteOffset": 3669824,
      "componentType": 5126,
      "count": 7,
      "max": [
        0,
        0
      ],
      "min": [
        0,
        0
      ],
      "type": "VEC2"
    },
    {
      "bufferView": 0,
      "byteOffset": 3362592,
      "componentType": 5125,
      "count": 9,
      "max": [
        6
      ],
      "min": [
        0
      ],
      "type": "SCALAR"
    },
    {
      "bufferView": 2,
      "byteOffset": 11009640,
      "componentType": 5126,
      "count": 6683,
      "max": [
        0.10621999949216843,
        -0.028149999678134918,
        -0.006380000151693821
      ],
      "min": [
        0.097410000860691071,
        -0.06443999707698822,
        -0.007350000087171793
      ],
      "type": "VEC3"
    },
    {
      "bufferView": 2,
      "byteOffset": 11089836,
      "componentType": 5126,
      "count": 6683,
      "max": [
        1,
        0.99518156051635742,
        0.9951854944229126
      ],
      "min": [
        -1,
        -0.99519628286361694,
        -0.99518442153930664
      ],
      "type": "VEC3"
    },
    {
      "bufferView": 3,
      "byteOffset": 7339760,
      "componentType": 5126,
      "count": 6683,
      "max": [
        0,
        0,
        0,
        1
      ],
      "min": [
        0,
        0,
        0,
        1
      ],
      "type": "VEC4"
    },
    {
      "bufferView": 0,
      "byteOffset": 3362628,
      "componentType": 5125,
      "count": 11601,
      "max": [
        6682
      ],
      "min": [
        0
      ],
      "type": "SCALAR"
    },
    {
      "bufferView": 2,
      "byteOffset": 11170032,
      "componentType": 5126,
      "count": 6258,
      "max": [
        0.14239999651908875,
        -0.066529996693134308,
        -0.00075000000651925802
      ],
      "min": [
        -0.2526400089263916,
        -0.46156001091003418,
        -0.08263000100851059
      ],
      "type": "VEC3"
    },
    {
      "bufferView": 2,
      "byteOffset": 11245128,
      "componentType": 5126,
      "count": 6258,
      "max": [
        0.9951854944229126,
        0.9951854944229126,
        1
      ],
      "min": [
        -0.9951854944229126,
        -0.99524831771850586,
        -1
      ],
      "type": "VEC3"
    },
    {
      "bufferView": 0,
      "byteOffset": 3409032,
      "componentType": 5125,
      "count": 9960,
      "max": [
        6257
      ],
      "min": [
        0
      ],
      "type": "SCALAR"
    },
    {
      "bufferView": 2,
      "byteOffset": 11320224,
      "componentType": 5126,
      "count": 124,
      "max": [
        7.5355701446533203,
        -9.7335300445556641,
        2.7413098812103271
      ],
      "min": [
        -7.5355701446533203,
        -10.861140251159668,
        -2.6381399631500244
      ],
      "type": "VEC3"
    },
    {
      "bufferView": 2,
      "byteOffset": 11321712,
      "componentType": 5126,
      "count": 124,
      "max": [
        1,
        1,
        1
      ],
      "min": [
        -1,
        -1,
        -1
      ],
      "type": "VEC3"
    },
    {
      "bufferView": 1,
      "byteOffset": 3669880,
      "componentType": 5126,
      "count": 124,
      "max": [
        0,
        0
      ],
      "min": [
        0,
        0
      ],
      "type": "VEC2"
    },
    {
      "bufferView": 0,
      "byteOffset": 3448872,
      "componentType": 5125,
      "count": 300,
      "max": [
        123
      ],
      "min": [
        0
      ],
      "type": "SCALAR"
    }
  ],
  "asset": {
    "extras": {
      "author": "exohay (https://sketchfab.com/exohay)",
      "license": "CC-BY-4.0 (http://creativecommons.org/licenses/by/4.0/)",
      "source": "https://sketchfab.com/models/f290a13fac3d4db883ffdd6ac00bdcc6",
      "title": "Xbox One Slim"
    },
    "generator": "Sketchfab-3.20.1",
    "version": "2.0"
  },
  "bufferViews": [
    {
      "buffer": 0,
      "byteLength": 3450072,
      "byteOffset": 0,
      "name": "floatBufferViews",
      "target": 34963
    },
    {
      "buffer": 0,
      "byteLength": 3670872,
      "byteOffset": 3450072,
      "byteStride": 8,
      "name": "floatBufferViews",
      "target": 34962
    },
    {
      "buffer": 0,
      "byteLength": 11323200,
      "byteOffset": 7120944,
      "byteStride": 12,
      "name": "floatBufferViews",
      "target": 34962
    },
    {
      "buffer": 0,
      "byteLength": 7446688,
      "byteOffset": 18444144,
      "byteStride": 16,
      "name": "floatBufferViews",
      "target": 34962
    }
  ],
  "buffers": [
    {
      "byteLength": 25890832,
      "uri": "scene.bin"
    }
  ],
  "images": [
    {
      "uri": "textures/Material.007_baseColor.png"
    },
    {
      "uri": "textures/Material.007_metallicRoughness.png"
    },
    {
      "uri": "textures/Material.001_metallicRoughness.png"
    }
  ],
  "materials": [
    {
      "doubleSided": true,
      "emissiveFactor": [
        0,
        0,
        0
      ],
      "name": "Material.001",
      "pbrMetallicRoughness": {
        "baseColorFactor": [
          0.0003424751,
          0.0001454762,
          0.0001454762,
          1
        ],
        "metallicFactor": 1,
        "metallicRoughnessTexture": {
          "index": 2,
          "texCoord": 0
        },
        "roughnessFactor": 1
      }
    },
    {
      "doubleSided": true,
      "emissiveFactor": [
        0,
        0,
        0
      ],
      "name": "Material.003",
      "pbrMetallicRoughness": {
        "baseColorFactor": [
          0.0188487377,
          0.0188487377,
          0.0188487377,
          1
        ],
        "metallicFactor": 0,
        "roughnessFactor": 0.59999999999999998
      }
    },
    {
      "doubleSided": true,
      "emissiveFactor": [
        0,
        0,
        0
      ],
      "name": "Material.007",
      "pbrMetallicRoughness": {
        "baseColorFactor": [
          1,
          1,
          1,
          1
        ],
        "baseColorTexture": {
          "index": 0,
          "texCoord": 0
        },
        "metallicFactor": 1,
        "metallicRoughnessTexture": {
          "index": 1,
          "texCoord": 0
        },
        "roughnessFactor": 0.40000000000000002
      }
    },
    {
      "doubleSided": true,
      "emissiveFactor": [
        0,
        0,
        0
      ],
      "name": "Material",
      "pbrMetallicRoughness": {
        "baseColorFactor": [
          0.80000007149999997,
          0.54396516080000001,
          0.034623406799999999,
          1
        ],
        "metallicFactor": 0,
        "roughnessFactor": 0.59999999999999998
      }
    }
  ],
  "meshes": [
    {
      "name": "Xbox One S_0",
      "primitives": [
        {
          "attributes": {
            "NORMAL": 1,
            "POSITION": 0,
            "TANGENT": 2,
            "TEXCOORD_0": 3
          },
          "indices": 4,
          "material": 2,
          "mode": 4
        }
      ]
    },
    {
      "name": "Xbox One S_0",
      "primitives": [
        {
          "attributes": {
            "NORMAL": 6,
            "POSITION": 5,
            "TANGENT": 7,
            "TEXCOORD_0": 8
          },
          "indices": 9,
          "material": 2,
          "mode": 4
        }
      ]
    },
    {
      "name": "Xbox One S_0",
      "primitives": [
        {
          "attributes": {
            "NORMAL": 11,
            "POSITION": 10,
            "TANGENT": 12,
            "TEXCOORD_0": 13
          },
          "indices": 14,
          "material": 2,
          "mode": 4
        }
      ]
    },
    {
      "name": "Xbox One S_0",
      "primitives": [
        {
          "attributes": {
            "NORMAL": 16,
            "POSITION": 15,
            "TANGENT": 17,
            "TEXCOORD_0": 18
          },
          "indices": 19,
          "material": 2,
          "mode": 4
        }
      ]
    },
    {
      "name": "Xbox One S_0",
      "primitives": [
        {
          "attributes": {
            "NORMAL": 21,
            "POSITION": 20,
            "TANGENT": 22,
            "TEXCOORD_0": 23
          },
          "indices": 24,
          "material": 2,
          "mode": 4
        }
      ]
    },
    {
      "name": "Xbox One S_0",
      "primitives": [
        {
          "attributes": {
            "NORMAL": 26,
            "POSITION": 25,
            "TANGENT": 27,
            "TEXCOORD_0": 28
          },
          "indices": 29,
          "material": 2,
          "mode": 4
        }
      ]
    },
    {
      "name": "Xbox One S_0",
      "primitives": [
        {
          "attributes": {
            "NORMAL": 31,
            "POSITION": 30,
            "TANGENT": 32,
            "TEXCOORD_0": 33
          },
          "indices": 34,
          "material": 2,
          "mode": 4
        }
      ]
    },
    {
      "name": "Xbox One S_0",
      "primitives": [
        {
          "attributes": {
            "NORMAL": 36,
            "POSITION": 35,
            "TANGENT": 37,
            "TEXCOORD_0": 38
          },
          "indices": 39,
          "material": 2,
          "mode": 4
        }
      ]
    },
    {
      "name": "Xbox One S_1",
      "primitives": [
        {
          "attributes": {
            "NORMAL": 41,
            "POSITION": 40,
            "TANGENT": 42
          },
          "indices": 43,
          "material": 3,
          "mode": 4
        }
      ]
    },
    {
      "name": "Fan_0",
      "primitives": [
        {
          "attributes": {
            "NORMAL": 45,
            "POSITION": 44
          },
          "indices": 46,
          "material": 1,
          "mode": 4
        }
      ]
    },
    {
      "name": "Stand_0",
      "primitives": [
        {
          "attributes": {
            "NORMAL": 48,
            "POSITION": 47,
            "TEXCOORD_0": 49
          },
          "indices": 50,
          "material": 0,
          "mode": 4
        }
      ]
    }
  ],
  "nodes": [
    {
      "children": [
        1
      ],
      "name": "RootNode (gltf orientation matrix)",
      "rotation": [
        -0.70710678118654746,
        -0,
        -0,
        0.70710678118654757
      ]
    },
    {
      "children": [
        2
      ],
      "name": "RootNode (model correction matrix)"
    },
    {
      "children": [
        3,
        13,
        15
      ],
      "name": "Root"
    },
    {
      "children": [
        4,
        5,
        6,
        7,
        8,
        9,
        10,
        11,
        12
      ],
      "matrix": [
        1,
        0,
        0,
        0,
        0,
        0,
        1,
        0,
        0,
        -1,
        0,
        0,
        0,
        0,
        0.15416000000000002,
        1
      ],
      "name": "Xbox One S"
    },
    {
      "mesh": 0,
      "name": "Xbox One S_0"
    },
    {
      "mesh": 1,
      "name": "Xbox One S_0"
    },
    {
      "mesh": 2,
      "name": "Xbox One S_0"
    },
    {
      "mesh": 3,
      "name": "Xbox One S_0"
    },
    {
      "mesh": 4,
      "name": "Xbox One S_0"
    },
    {
      "mesh": 5,
      "name": "Xbox One S_0"
    },
    {
      "mesh": 6,
      "name": "Xbox One S_0"
    },
    {
      "mesh": 7,
      "name": "Xbox One S_0"
    },
    {
      "mesh": 8,
      "name": "Xbox One S_1"
    },
    {
      "children": [
        14
      ],
      "matrix": [
        0.31408000000000008,
        0,
        0,
        0,
        0,
        -0,
        -0.31408000000000008,
        0,
        0,
        0.31408000000000008,
        -0,
        0,
        0,
        0,
        0,
        1
      ],
      "name": "Fan"
    },
    {
      "mesh": 9,
      "name": "Fan_0"
    },
    {
      "children": [
        16
      ],
      "matrix": [
        0.014190000000000001,
        0,
        0,
        0,
        0,
        0,
        0.014190000000000001,
        0,
        0,
        -0.014190000000000001,
        0,
        0,
        0,
        0,
        0.15416000000000002,
        1
      ],
      "name": "Stand"
    },
    {
      "mesh": 10,
      "name": "Stand_0"
    }
  ],
  "samplers": [
    {
      "magFilter": 9729,
      "minFilter": 9987,
      "wrapS": 10497,
      "wrapT": 10497
    }
  ],
  "scene": 0,
  "scenes": [
    {
      "name": "OSG_Scene",
      "nodes": [
        0
      ]
    }
  ],
  "textures": [
    {
      "sampler": 0,
      "source": 0
    },
    {
      "sampler": 0,
      "source": 1
    },
    {
      "sampler": 0,
      "source": 2
    }
  ]
}

