{
    "asset" : {
        "generator" : "Khronos glTF Blender I/O v1.3.48",
        "version" : "2.0"
    },
    "scene" : 0,
    "scenes" : [
        {
            "name" : "Scene",
            "nodes" : [
                0,
                1,
                2,
                3,
                4,
                5,
                6,
                7,
                8,
                9,
                10,
                11,
                12
            ]
        }
    ],
    "nodes" : [
        {
            "name" : "Light",
            "rotation" : [
                0.16907575726509094,
                0.7558803558349609,
                -0.27217137813568115,
                0.570947527885437
            ],
            "scale" : [
                4.514366626739502,
                4.514366626739502,
                4.51436710357666
            ],
            "translation" : [
                5.005911350250244,
                13.92764663696289,
                -11.474398612976074
            ]
        },
        {
            "name" : "Camera",
            "rotation" : [
                0.483536034822464,
                0.33687159419059753,
                -0.20870360732078552,
                0.7804827094078064
            ],
            "scale" : [
                4.514366626739502,
                4.514366626739502,
                4.514366626739502
            ],
            "translation" : [
                19.824979782104492,
                9.659074783325195,
                24.33014678955078
            ]
        },
        {
            "mesh" : 0,
            "name" : "Cylinder.002",
            "scale" : [
                0.3499999940395355,
                1.5,
                0.3499999940395355
            ],
            "translation" : [
                2.422189950942993,
                4.756379127502441,
                -2.700000047683716
            ]
        },
        {
            "mesh" : 1,
            "name" : "Cylinder.003",
            "scale" : [
                0.3499999940395355,
                1.5,
                0.3499999940395355
            ],
            "translation" : [
                -2.422189950942993,
                4.756379127502441,
                -2.700000047683716
            ]
        },
        {
            "mesh" : 2,
            "name" : "Cylinder.004",
            "scale" : [
                0.3499999940395355,
                1.5,
                0.3499999940395355
            ],
            "translation" : [
                -2.422189950942993,
                4.756379127502441,
                4
            ]
        },
        {
            "mesh" : 3,
            "name" : "Cylinder.005",
            "scale" : [
                0.3499999940395355,
                1.5,
                0.3499999940395355
            ],
            "translation" : [
                2.422189950942993,
                4.756379127502441,
                4
            ]
        },
        {
            "mesh" : 4,
            "name" : "Cube",
            "scale" : [
                3.0299999713897705,
                3.2300000190734863,
                4.46999979019165
            ],
            "translation" : [
                0.02572786808013916,
                7.9676055908203125,
                0.6638598442077637
            ]
        },
        {
            "mesh" : 5,
            "name" : "Cube.001",
            "scale" : [
                3.0299999713897705,
                0.75,
                4.259999752044678
            ],
            "translation" : [
                0.2215913087129593,
                6.182775020599365,
                0.663860023021698
            ]
        },
        {
            "mesh" : 6,
            "name" : "Cube.002",
            "scale" : [
                3.0299999713897705,
                0.75,
                4.259999752044678
            ],
            "translation" : [
                0.2215913087129593,
                7.860416412353516,
                0.663860023021698
            ]
        },
        {
            "mesh" : 7,
            "name" : "Cube.003",
            "scale" : [
                3.0299999713897705,
                0.75,
                4.259999752044678
            ],
            "translation" : [
                0.2215913087129593,
                9.510518074035645,
                0.6638598442077637
            ]
        },
        {
            "mesh" : 8,
            "name" : "Torus",
            "scale" : [
                0.38999998569488525,
                0.5100000500679016,
                1.7999999523162842
            ],
            "translation" : [
                3.1853342056274414,
                7.8525004386901855,
                0.5353286266326904
            ]
        },
        {
            "mesh" : 9,
            "name" : "Torus.001",
            "scale" : [
                0.38999998569488525,
                0.5100000500679016,
                1.7999999523162842
            ],
            "translation" : [
                3.1853342056274414,
                6.2017998695373535,
                0.5353286266326904
            ]
        },
        {
            "mesh" : 10,
            "name" : "Torus.002",
            "scale" : [
                0.38999998569488525,
                0.5100000500679016,
                1.7999999523162842
            ],
            "translation" : [
                3.1853342056274414,
                9.425345420837402,
                0.5353286266326904
            ]
        }
    ],
    "materials" : [
        {
            "doubleSided" : true,
            "emissiveFactor" : [
                0,
                0,
                0
            ],
            "name" : "Material.001",
            "pbrMetallicRoughness" : {
                "baseColorFactor" : [
                    0.15435996651649475,
                    0.15435996651649475,
                    0.15435996651649475,
                    1
                ],
                "metallicFactor" : 0.699999988079071,
                "roughnessFactor" : 1
            }
        },
        {
            "doubleSided" : true,
            "emissiveFactor" : [
                0,
                0,
                0
            ],
            "name" : "wood",
            "pbrMetallicRoughness" : {
                "baseColorTexture" : {
                    "index" : 0,
                    "texCoord" : 0
                },
                "metallicFactor" : 0,
                "roughnessFactor" : 0.5
            }
        }
    ],
    "meshes" : [
        {
            "name" : "Cylinder.003",
            "primitives" : [
                {
                    "attributes" : {
                        "POSITION" : 0,
                        "NORMAL" : 1,
                        "TEXCOORD_0" : 2
                    },
                    "indices" : 3,
                    "material" : 0
                }
            ]
        },
        {
            "name" : "Cylinder.004",
            "primitives" : [
                {
                    "attributes" : {
                        "POSITION" : 4,
                        "NORMAL" : 5,
                        "TEXCOORD_0" : 6
                    },
                    "indices" : 3,
                    "material" : 0
                }
            ]
        },
        {
            "name" : "Cylinder.005",
            "primitives" : [
                {
                    "attributes" : {
                        "POSITION" : 7,
                        "NORMAL" : 8,
                        "TEXCOORD_0" : 9
                    },
                    "indices" : 3,
                    "material" : 0
                }
            ]
        },
        {
            "name" : "Cylinder.006",
            "primitives" : [
                {
                    "attributes" : {
                        "POSITION" : 10,
                        "NORMAL" : 11,
                        "TEXCOORD_0" : 12
                    },
                    "indices" : 3,
                    "material" : 0
                }
            ]
        },
        {
            "name" : "Cube",
            "primitives" : [
                {
                    "attributes" : {
                        "POSITION" : 13,
                        "NORMAL" : 14,
                        "TEXCOORD_0" : 15
                    },
                    "indices" : 16,
                    "material" : 1
                }
            ]
        },
        {
            "name" : "Cube.001",
            "primitives" : [
                {
                    "attributes" : {
                        "POSITION" : 17,
                        "NORMAL" : 18,
                        "TEXCOORD_0" : 19
                    },
                    "indices" : 16,
                    "material" : 1
                }
            ]
        },
        {
            "name" : "Cube.002",
            "primitives" : [
                {
                    "attributes" : {
                        "POSITION" : 20,
                        "NORMAL" : 21,
                        "TEXCOORD_0" : 22
                    },
                    "indices" : 16,
                    "material" : 1
                }
            ]
        },
        {
            "name" : "Cube.003",
            "primitives" : [
                {
                    "attributes" : {
                        "POSITION" : 23,
                        "NORMAL" : 24,
                        "TEXCOORD_0" : 25
                    },
                    "indices" : 16,
                    "material" : 1
                }
            ]
        },
        {
            "name" : "Torus",
            "primitives" : [
                {
                    "attributes" : {
                        "POSITION" : 26,
                        "NORMAL" : 27,
                        "TEXCOORD_0" : 28
                    },
                    "indices" : 29,
                    "material" : 0
                }
            ]
        },
        {
            "name" : "Torus.001",
            "primitives" : [
                {
                    "attributes" : {
                        "POSITION" : 30,
                        "NORMAL" : 31,
                        "TEXCOORD_0" : 32
                    },
                    "indices" : 29,
                    "material" : 0
                }
            ]
        },
        {
            "name" : "Torus.002",
            "primitives" : [
                {
                    "attributes" : {
                        "POSITION" : 33,
                        "NORMAL" : 34,
                        "TEXCOORD_0" : 35
                    },
                    "indices" : 29,
                    "material" : 0
                }
            ]
        }
    ],
    "textures" : [
        {
            "source" : 0
        }
    ],
    "images" : [
        {
            "bufferView" : 17,
            "mimeType" : "image/jpeg",
            "name" : "drawer_texture"
        }
    ],
    "accessors" : [
        {
            "bufferView" : 0,
            "componentType" : 5126,
            "count" : 192,
            "max" : [
                1,
                1,
                1
            ],
            "min" : [
                -1,
                -1,
                -1
            ],
            "type" : "VEC3"
        },
        {
            "bufferView" : 1,
            "componentType" : 5126,
            "count" : 192,
            "type" : "VEC3"
        },
        {
            "bufferView" : 2,
            "componentType" : 5126,
            "count" : 192,
            "type" : "VEC2"
        },
        {
            "bufferView" : 3,
            "componentType" : 5123,
            "count" : 372,
            "type" : "SCALAR"
        },
        {
            "bufferView" : 4,
            "componentType" : 5126,
            "count" : 192,
            "max" : [
                1,
                1,
                1
            ],
            "min" : [
                -1,
                -1,
                -1
            ],
            "type" : "VEC3"
        },
        {
            "bufferView" : 5,
            "componentType" : 5126,
            "count" : 192,
            "type" : "VEC3"
        },
        {
            "bufferView" : 6,
            "componentType" : 5126,
            "count" : 192,
            "type" : "VEC2"
        },
        {
            "bufferView" : 7,
            "componentType" : 5126,
            "count" : 192,
            "max" : [
                1,
                1,
                1
            ],
            "min" : [
                -1,
                -1,
                -1
            ],
            "type" : "VEC3"
        },
        {
            "bufferView" : 8,
            "componentType" : 5126,
            "count" : 192,
            "type" : "VEC3"
        },
        {
            "bufferView" : 9,
            "componentType" : 5126,
            "count" : 192,
            "type" : "VEC2"
        },
        {
            "bufferView" : 10,
            "componentType" : 5126,
            "count" : 192,
            "max" : [
                1,
                1,
                1
            ],
            "min" : [
                -1,
                -1,
                -1
            ],
            "type" : "VEC3"
        },
        {
            "bufferView" : 11,
            "componentType" : 5126,
            "count" : 192,
            "type" : "VEC3"
        },
        {
            "bufferView" : 12,
            "componentType" : 5126,
            "count" : 192,
            "type" : "VEC2"
        },
        {
            "bufferView" : 13,
            "componentType" : 5126,
            "count" : 24,
            "max" : [
                1,
                1,
                1
            ],
            "min" : [
                -1,
                -1,
                -1
            ],
            "type" : "VEC3"
        },
        {
            "bufferView" : 14,
            "componentType" : 5126,
            "count" : 24,
            "type" : "VEC3"
        },
        {
            "bufferView" : 15,
            "componentType" : 5126,
            "count" : 24,
            "type" : "VEC2"
        },
        {
            "bufferView" : 16,
            "componentType" : 5123,
            "count" : 36,
            "type" : "SCALAR"
        },
        {
            "bufferView" : 18,
            "componentType" : 5126,
            "count" : 24,
            "max" : [
                1,
                1,
                1
            ],
            "min" : [
                -1,
                -1,
                -1
            ],
            "type" : "VEC3"
        },
        {
            "bufferView" : 19,
            "componentType" : 5126,
            "count" : 24,
            "type" : "VEC3"
        },
        {
            "bufferView" : 20,
            "componentType" : 5126,
            "count" : 24,
            "type" : "VEC2"
        },
        {
            "bufferView" : 21,
            "componentType" : 5126,
            "count" : 24,
            "max" : [
                1,
                1,
                1
            ],
            "min" : [
                -1,
                -1,
                -1
            ],
            "type" : "VEC3"
        },
        {
            "bufferView" : 22,
            "componentType" : 5126,
            "count" : 24,
            "type" : "VEC3"
        },
        {
            "bufferView" : 23,
            "componentType" : 5126,
            "count" : 24,
            "type" : "VEC2"
        },
        {
            "bufferView" : 24,
            "componentType" : 5126,
            "count" : 24,
            "max" : [
                1,
                1,
                1
            ],
            "min" : [
                -1,
                -1,
                -1
            ],
            "type" : "VEC3"
        },
        {
            "bufferView" : 25,
            "componentType" : 5126,
            "count" : 24,
            "type" : "VEC3"
        },
        {
            "bufferView" : 26,
            "componentType" : 5126,
            "count" : 24,
            "type" : "VEC2"
        },
        {
            "bufferView" : 27,
            "componentType" : 5126,
            "count" : 2304,
            "max" : [
                1.25,
                0.25,
                1.25
            ],
            "min" : [
                -1.25,
                -0.25,
                -1.25
            ],
            "type" : "VEC3"
        },
        {
            "bufferView" : 28,
            "componentType" : 5126,
            "count" : 2304,
            "type" : "VEC3"
        },
        {
            "bufferView" : 29,
            "componentType" : 5126,
            "count" : 2304,
            "type" : "VEC2"
        },
        {
            "bufferView" : 30,
            "componentType" : 5123,
            "count" : 3456,
            "type" : "SCALAR"
        },
        {
            "bufferView" : 31,
            "componentType" : 5126,
            "count" : 2304,
            "max" : [
                1.25,
                0.25,
                1.25
            ],
            "min" : [
                -1.25,
                -0.25,
                -1.25
            ],
            "type" : "VEC3"
        },
        {
            "bufferView" : 32,
            "componentType" : 5126,
            "count" : 2304,
            "type" : "VEC3"
        },
        {
            "bufferView" : 33,
            "componentType" : 5126,
            "count" : 2304,
            "type" : "VEC2"
        },
        {
            "bufferView" : 34,
            "componentType" : 5126,
            "count" : 2304,
            "max" : [
                1.25,
                0.25,
                1.25
            ],
            "min" : [
                -1.25,
                -0.25,
                -1.25
            ],
            "type" : "VEC3"
        },
        {
            "bufferView" : 35,
            "componentType" : 5126,
            "count" : 2304,
            "type" : "VEC3"
        },
        {
            "bufferView" : 36,
            "componentType" : 5126,
            "count" : 2304,
            "type" : "VEC2"
        }
    ],
    "bufferViews" : [
        {
            "buffer" : 0,
            "byteLength" : 2304,
            "byteOffset" : 0
        },
        {
            "buffer" : 0,
            "byteLength" : 2304,
            "byteOffset" : 2304
        },
        {
            "buffer" : 0,
            "byteLength" : 1536,
            "byteOffset" : 4608
        },
        {
            "buffer" : 0,
            "byteLength" : 744,
            "byteOffset" : 6144
        },
        {
            "buffer" : 0,
            "byteLength" : 2304,
            "byteOffset" : 6888
        },
        {
            "buffer" : 0,
            "byteLength" : 2304,
            "byteOffset" : 9192
        },
        {
            "buffer" : 0,
            "byteLength" : 1536,
            "byteOffset" : 11496
        },
        {
            "buffer" : 0,
            "byteLength" : 2304,
            "byteOffset" : 13032
        },
        {
            "buffer" : 0,
            "byteLength" : 2304,
            "byteOffset" : 15336
        },
        {
            "buffer" : 0,
            "byteLength" : 1536,
            "byteOffset" : 17640
        },
        {
            "buffer" : 0,
            "byteLength" : 2304,
            "byteOffset" : 19176
        },
        {
            "buffer" : 0,
            "byteLength" : 2304,
            "byteOffset" : 21480
        },
        {
            "buffer" : 0,
            "byteLength" : 1536,
            "byteOffset" : 23784
        },
        {
            "buffer" : 0,
            "byteLength" : 288,
            "byteOffset" : 25320
        },
        {
            "buffer" : 0,
            "byteLength" : 288,
            "byteOffset" : 25608
        },
        {
            "buffer" : 0,
            "byteLength" : 192,
            "byteOffset" : 25896
        },
        {
            "buffer" : 0,
            "byteLength" : 72,
            "byteOffset" : 26088
        },
        {
            "buffer" : 0,
            "byteLength" : 135438,
            "byteOffset" : 26160
        },
        {
            "buffer" : 0,
            "byteLength" : 288,
            "byteOffset" : 161600
        },
        {
            "buffer" : 0,
            "byteLength" : 288,
            "byteOffset" : 161888
        },
        {
            "buffer" : 0,
            "byteLength" : 192,
            "byteOffset" : 162176
        },
        {
            "buffer" : 0,
            "byteLength" : 288,
            "byteOffset" : 162368
        },
        {
            "buffer" : 0,
            "byteLength" : 288,
            "byteOffset" : 162656
        },
        {
            "buffer" : 0,
            "byteLength" : 192,
            "byteOffset" : 162944
        },
        {
            "buffer" : 0,
            "byteLength" : 288,
            "byteOffset" : 163136
        },
        {
            "buffer" : 0,
            "byteLength" : 288,
            "byteOffset" : 163424
        },
        {
            "buffer" : 0,
            "byteLength" : 192,
            "byteOffset" : 163712
        },
        {
            "buffer" : 0,
            "byteLength" : 27648,
            "byteOffset" : 163904
        },
        {
            "buffer" : 0,
            "byteLength" : 27648,
            "byteOffset" : 191552
        },
        {
            "buffer" : 0,
            "byteLength" : 18432,
            "byteOffset" : 219200
        },
        {
            "buffer" : 0,
            "byteLength" : 6912,
            "byteOffset" : 237632
        },
        {
            "buffer" : 0,
            "byteLength" : 27648,
            "byteOffset" : 244544
        },
        {
            "buffer" : 0,
            "byteLength" : 27648,
            "byteOffset" : 272192
        },
        {
            "buffer" : 0,
            "byteLength" : 18432,
            "byteOffset" : 299840
        },
        {
            "buffer" : 0,
            "byteLength" : 27648,
            "byteOffset" : 318272
        },
        {
            "buffer" : 0,
            "byteLength" : 27648,
            "byteOffset" : 345920
        },
        {
            "buffer" : 0,
            "byteLength" : 18432,
            "byteOffset" : 373568
        }
    ],
    "buffers" : [
        {
            "byteLength" : 392000,
            "uri" : "data:application/octet-stream;base64,"
        }
    ]
}
